<svg width="15" height="15" viewBox="0 0 15 15" fill="none" xmlns="http://www.w3.org/2000/svg">
<g clip-path="url(#clip0_1035_4794)">
<path d="M14.9863 4.40809C14.9512 3.61108 14.8223 3.06314 14.6377 2.58835C14.4472 2.08437 14.1542 1.63315 13.7703 1.25806C13.3952 0.877125 12.941 0.581123 12.4428 0.393632C11.9653 0.209003 11.4202 0.080117 10.6232 0.0449768C9.82025 0.00686054 9.56534 -0.00195312 7.52881 -0.00195312C5.49228 -0.00195312 5.23737 0.00686054 4.43739 0.0420008C3.64038 0.077141 3.09244 0.206141 2.61776 0.390656C2.11367 0.581123 1.66245 0.874149 1.28736 1.25806C0.906422 1.63315 0.610534 2.08734 0.422929 2.58549C0.2383 3.06314 0.109414 3.6081 0.0742737 4.40511C0.0361574 5.20807 0.0273438 5.46298 0.0273438 7.49951C0.0273438 9.53604 0.0361574 9.79095 0.0712976 10.5909C0.106438 11.3879 0.235438 11.9359 0.420067 12.4107C0.610534 12.9147 0.906422 13.3659 1.28736 13.741C1.66245 14.1219 2.11664 14.4179 2.61479 14.6054C3.09244 14.79 3.6374 14.9189 4.43452 14.954C5.23439 14.9893 5.48942 14.998 7.52595 14.998C9.56248 14.998 9.81739 14.9893 10.6174 14.954C11.4144 14.9189 11.9623 14.79 12.437 14.6054C13.4451 14.2156 14.2421 13.4186 14.6318 12.4107C14.8163 11.933 14.9453 11.3879 14.9805 10.5909C15.0156 9.79095 15.0244 9.53604 15.0244 7.49951C15.0244 5.46298 15.0215 5.20807 14.9863 4.40809ZM13.6355 10.5323C13.6033 11.2649 13.4802 11.6605 13.3777 11.9242C13.1256 12.5777 12.607 13.0963 11.9535 13.3484C11.6898 13.4509 11.2913 13.574 10.5616 13.6061C9.77046 13.6414 9.53318 13.6501 7.53179 13.6501C5.53039 13.6501 5.29014 13.6414 4.50183 13.6061C3.76926 13.574 3.37368 13.4509 3.10995 13.3484C2.78476 13.2282 2.48876 13.0377 2.2485 12.7886C1.99943 12.5454 1.80896 12.2524 1.68878 11.9272C1.58622 11.6635 1.46317 11.2649 1.43101 10.5353C1.39575 9.74414 1.38705 9.50674 1.38705 7.50535C1.38705 5.50396 1.39575 5.2637 1.43101 4.47551C1.46317 3.74294 1.58622 3.34736 1.68878 3.08363C1.80896 2.75833 1.99943 2.46244 2.25148 2.22207C2.4946 1.973 2.78763 1.78253 3.11293 1.66246C3.37665 1.5599 3.77521 1.43685 4.5048 1.40457C5.29597 1.36943 5.53337 1.36062 7.53465 1.36062C9.53901 1.36062 9.7763 1.36943 10.5646 1.40457C11.2972 1.43685 11.6928 1.5599 11.9565 1.66246C12.2817 1.78253 12.5777 1.973 12.8179 2.22207C13.067 2.4653 13.2575 2.75833 13.3777 3.08363C13.4802 3.34736 13.6033 3.7458 13.6355 4.47551C13.6707 5.26668 13.6795 5.50396 13.6795 7.50535C13.6795 9.50674 13.6707 9.74116 13.6355 10.5323Z" fill="#F2F2F2"/>
<path d="M7.52907 3.64648C5.40177 3.64648 3.67578 5.37236 3.67578 7.49978C3.67578 9.62719 5.40177 11.3531 7.52907 11.3531C9.65649 11.3531 11.3824 9.62719 11.3824 7.49978C11.3824 5.37236 9.65649 3.64648 7.52907 3.64648ZM7.52907 9.99931C6.14899 9.99931 5.02954 8.87997 5.02954 7.49978C5.02954 6.11958 6.14899 5.00024 7.52907 5.00024C8.90927 5.00024 10.0286 6.11958 10.0286 7.49978C10.0286 8.87997 8.90927 9.99931 7.52907 9.99931Z" fill="#F2F2F2"/>
<path d="M12.4321 3.49332C12.4321 3.99009 12.0293 4.39288 11.5324 4.39288C11.0356 4.39288 10.6328 3.99009 10.6328 3.49332C10.6328 2.99643 11.0356 2.59375 11.5324 2.59375C12.0293 2.59375 12.4321 2.99643 12.4321 3.49332Z" fill="#F2F2F2"/>
</g>
<defs>
<clipPath id="clip0_1035_4794">
<rect width="15" height="15" fill="white" transform="translate(0 -0.00195312)"/>
</clipPath>
</defs>
</svg>
