<svg width="18" height="18" viewBox="0 0 18 18" fill="none" xmlns="http://www.w3.org/2000/svg">
<path d="M16.2005 16.2015V10.9275C16.2005 8.33547 15.6425 6.35547 12.6185 6.35547C11.1605 6.35547 10.1885 7.14747 9.79253 7.90347H9.75653V6.58947H6.89453V16.2015H9.88253V11.4315C9.88253 10.1715 10.1165 8.96547 11.6645 8.96547C13.1945 8.96547 13.2125 10.3875 13.2125 11.5035V16.1835H16.2005V16.2015Z" fill="#F2F2F2"/>
<path d="M2.03516 6.58789H5.02316V16.1999H2.03516V6.58789Z" fill="#F2F2F2"/>
<path d="M3.52878 1.80078C2.57478 1.80078 1.80078 2.57478 1.80078 3.52878C1.80078 4.48278 2.57478 5.27478 3.52878 5.27478C4.48278 5.27478 5.25678 4.48278 5.25678 3.52878C5.25678 2.57478 4.48278 1.80078 3.52878 1.80078Z" fill="#F2F2F2"/>
</svg>
