<svg width="26" height="26" viewBox="0 0 26 26" fill="none" xmlns="http://www.w3.org/2000/svg">
<path d="M19.1271 18.0448L14.5305 22.6413C14.3295 22.8426 14.0908 23.0022 13.8281 23.1111C13.5653 23.22 13.2837 23.2761 12.9992 23.2761C12.7148 23.2761 12.4332 23.22 12.1704 23.1111C11.9077 23.0022 11.669 22.8426 11.468 22.6413L6.87029 18.0448C5.65828 16.8327 4.8329 15.2884 4.49853 13.6073C4.16416 11.9261 4.33582 10.1836 4.99179 8.59997C5.64776 7.01637 6.75859 5.66285 8.18381 4.71057C9.60902 3.75828 11.2846 3.25 12.9987 3.25C14.7128 3.25 16.3884 3.75828 17.8136 4.71057C19.2388 5.66285 20.3496 7.01637 21.0056 8.59997C21.6616 10.1836 21.8332 11.9261 21.4989 13.6073C21.1645 15.2884 20.3391 16.8327 19.1271 18.0448V18.0448Z" stroke="#F2F2F2" stroke-width="2" stroke-linecap="round" stroke-linejoin="round"/>
<path d="M15.2981 14.2141C15.9076 13.6046 16.25 12.778 16.25 11.916C16.25 11.0541 15.9076 10.2274 15.2981 9.61792C14.6886 9.00842 13.862 8.66602 13 8.66602C12.138 8.66602 11.3114 9.00842 10.7019 9.61792C10.0924 10.2274 9.75 11.0541 9.75 11.916C9.75 12.778 10.0924 13.6046 10.7019 14.2141C11.3114 14.8236 12.138 15.166 13 15.166C13.862 15.166 14.6886 14.8236 15.2981 14.2141Z" stroke="#F2F2F2" stroke-width="2" stroke-linecap="round" stroke-linejoin="round"/>
</svg>
