<svg width="26" height="26" viewBox="0 0 26 26" fill="none" xmlns="http://www.w3.org/2000/svg">
<path d="M3.8846 3.8846C3.47827 4.29093 3.25 4.84203 3.25 5.41667V6.5C3.25 15.4743 10.5257 22.75 19.5 22.75H20.5833C21.158 22.75 21.7091 22.5217 22.1154 22.1154C22.5217 21.7091 22.75 21.158 22.75 20.5833V17.0311C22.7501 16.8036 22.6785 16.5819 22.5455 16.3974C22.4125 16.2129 22.2248 16.0749 22.009 16.003L17.1416 14.3802C16.8942 14.2979 16.6255 14.3077 16.3847 14.4076C16.1439 14.5074 15.9473 14.6908 15.8308 14.924L14.6066 17.3691C11.954 16.1706 9.82943 14.046 8.63092 11.3934L11.076 10.1693C11.3092 10.0527 11.4926 9.85606 11.5924 9.61528C11.6923 9.37451 11.7021 9.10578 11.6198 8.85842L9.997 3.991C9.92518 3.77537 9.78736 3.58779 9.60305 3.4548C9.41874 3.32182 9.19728 3.25017 8.97 3.25H5.41667C4.84203 3.25 4.29093 3.47827 3.8846 3.8846Z" stroke="#F2F2F2" stroke-width="2" stroke-linecap="round" stroke-linejoin="round"/>
</svg>
