<svg width="86" height="86" viewBox="0 0 86 86" fill="none" xmlns="http://www.w3.org/2000/svg">
<g opacity="0.4">
<path d="M69.1574 22.5686C72.7408 26.5103 74.8908 30.8103 74.8908 37.977C74.8908 50.5186 65.9324 61.627 53.3908 67.3603L50.1658 62.702C61.9908 56.252 64.4991 48.0103 65.2158 42.6353C63.4241 43.7103 60.9158 44.0686 58.4074 43.7103C51.9574 42.9936 46.9408 37.977 46.9408 31.1686C46.9408 27.9436 48.3741 24.7186 50.5241 22.2103C53.0324 19.702 55.8991 18.627 59.4824 18.627C63.4241 18.627 67.0074 20.4186 69.1574 22.5686ZM33.3241 22.5686C36.9074 26.5103 39.0574 30.8103 39.0574 37.977C39.0574 50.5186 30.0991 61.627 17.5574 67.3603L14.3324 62.702C26.1574 56.252 28.6658 48.0103 29.3824 42.6353C27.5908 43.7103 25.0824 44.0686 22.5741 43.7103C16.1241 42.9936 11.1074 37.6186 11.1074 31.1686C11.1074 27.9436 12.5408 24.7186 14.6908 22.2103C17.1991 19.702 20.0658 18.627 23.6491 18.627C27.5908 18.627 31.1741 20.4186 33.3241 22.5686Z" fill="#3B65AF"/>
</g>
</svg>
