<svg width="158" height="64" viewBox="0 0 158 64" fill="none" xmlns="http://www.w3.org/2000/svg">
<path d="M17.3644 0.222656H0.5V25.8147H17.3644V0.222656Z" fill="#F2F2F2"/>
<path d="M20.3086 0.395779H30.1711C31.8379 0.355666 33.4921 0.693 35.0098 1.38249C36.3209 1.99596 37.4369 2.95934 38.2347 4.16634C38.8901 5.31527 39.3517 6.56419 39.6009 7.86297C39.9394 9.55436 40.0997 11.2765 40.0791 13.0013C40.0965 14.7197 39.9334 16.4353 39.5924 18.1197C39.3441 19.4174 38.9108 20.6728 38.3059 21.8476C37.5198 23.0569 36.416 24.0268 35.1151 24.6513C33.6143 25.343 31.9743 25.6806 30.3219 25.6381H20.3086V23.858H22.0648V2.17869H20.3086V0.395779ZM26.431 23.8836H29.2489C30.7081 23.8836 31.7517 23.676 32.3798 23.2608C34.6398 21.8296 35.7707 18.3747 35.7726 12.8961C35.7726 7.60136 34.6882 4.27345 32.5193 2.91233C32.0795 2.63151 31.5895 2.43839 31.0762 2.34362C30.4105 2.22237 29.7348 2.16524 29.0582 2.173H26.431V23.8836Z" fill="#F2F2F2"/>
<path d="M40.8477 0.396484H49.4549V2.1794H47.4625V23.8587H49.4549V25.6416H40.8477V23.8587H43.0763V2.1794H40.8477V0.396484Z" fill="#F2F2F2"/>
<path d="M69.2001 21.8512C67.2419 24.7573 64.4705 26.1648 60.886 26.0738C56.8708 26.0397 54.0767 24.6957 52.5036 22.0417V22.0587C51.2304 20.0626 50.5938 17.0977 50.5938 13.1641C50.5938 9.06936 51.2664 6.02486 52.6118 4.03057V4.04763C54.1127 1.38227 56.9581 0.0325275 61.1479 -0.00159517C63.6961 -0.0543677 66.1804 0.798116 68.1584 2.40406L68.7134 6.85138H66.6441C66.6608 5.50899 66.1557 4.21244 65.2352 3.23438C64.3073 2.26377 62.9506 1.77373 61.165 1.76426C59.1707 1.74151 57.6602 2.68936 56.6336 4.60781C55.6071 6.52627 55.0539 9.35751 54.9742 13.1015C55.0539 16.7811 55.5871 19.5754 56.5739 21.4843C57.5606 23.3933 59.0037 24.3412 60.9031 24.3279C61.6855 24.3163 62.4585 24.1551 63.1802 23.853C63.8365 23.5725 64.4262 23.1568 64.9107 22.6331V16.0389H62.4401V14.2162H70.7201V16.0133H69.1887L69.2001 21.8512Z" fill="#F2F2F2"/>
<path d="M71.1562 0.396484H79.7493V2.1794H77.7569V23.8587H79.7493V25.6416H71.1562V23.8587H73.3821V2.1794H71.1562V0.396484Z" fill="#F2F2F2"/>
<path d="M99.3329 0.396484L99.9932 4.9803H98.1289C97.8499 3.11303 97.1953 2.1794 96.1649 2.1794H92.3736V23.8587H94.0956V25.6416H86.2V23.8587H88.0102V2.1794H84.236C83.2037 2.1794 82.5481 3.11303 82.2692 4.9803H80.3906L81.051 0.396484H99.3329Z" fill="#F2F2F2"/>
<path d="M98.0586 25.6416V23.8843H99.9201C101.15 19.9753 102.383 16.0588 103.62 12.1347C104.857 8.21059 106.082 4.29785 107.295 0.396484H109.23L116.81 23.8843H118.623V25.6501H111.086V23.8843H112.361L111.823 22.2066C111.651 21.6644 111.477 21.1251 111.303 20.5886L110.779 18.9621C110.604 18.4142 110.425 17.8521 110.241 17.2759H104.107C103.922 17.8446 103.743 18.4133 103.575 18.9536C103.407 19.4938 103.239 20.0341 103.071 20.5715C102.903 21.109 102.735 21.6464 102.567 22.1895C102.399 22.7326 102.223 23.2957 102.038 23.8957H103.358V25.6615L98.0586 25.6416ZM109.694 15.4674C109.256 14.1517 108.827 12.8541 108.408 11.5745C107.988 10.2949 107.565 8.99541 107.138 7.676C106.709 9.01247 106.298 10.3044 105.903 11.5518L104.676 15.4674H109.694Z" fill="#F2F2F2"/>
<path d="M126.336 23.8587H134.65C135.683 23.8587 136.338 22.9184 136.617 21.0379H138.496L137.835 25.6416H120.214V23.8587H121.936V2.1794H120.18V0.396484H128.016V2.1794H126.336V23.8587Z" fill="#F2F2F2"/>
<path d="M23.8747 33.4919H21.9962V31.709H30.1025V33.4919H28.2581V54.7049C28.2353 57.4498 27.7192 59.6071 26.7097 61.1768C25.6641 62.7919 23.8377 63.7322 21.2305 63.9976L20.4648 62.3341C22.7419 62.2545 23.8804 59.6887 23.8804 54.6366L23.8747 33.4919Z" fill="#F2F2F2"/>
<path d="M41.1297 31.2949C47.6706 31.2949 50.941 35.638 50.941 44.3241C50.941 53.0103 47.6763 57.359 41.1468 57.3704C34.6192 57.3704 31.3555 53.0216 31.3555 44.3241C31.3555 35.6266 34.6136 31.2836 41.1297 31.2949ZM41.1297 33.0949C37.5358 33.0949 35.7388 36.838 35.7388 44.3241C35.7388 51.8103 37.5415 55.559 41.1468 55.5704C44.7407 55.5704 46.5387 51.8273 46.5406 44.3412C46.5425 36.8551 44.7389 33.1063 41.1297 33.0949Z" fill="#F2F2F2"/>
<path d="M66.6099 31.709H72.3025V33.4919H70.5207V46.5381C70.5207 53.702 67.7693 57.284 62.2664 57.284C58.9988 57.284 56.663 56.2281 55.2588 54.1162C54.1203 52.376 53.551 49.8329 53.551 46.487V33.4919H51.7578V31.709H59.6393V33.4919H57.9315V46.632C57.9315 49.5419 58.1573 51.5551 58.6089 52.6717C59.3148 54.539 60.8167 55.4736 63.1146 55.4755C66.5928 55.4755 68.3319 52.4765 68.3319 46.4784V33.4919H66.6099V31.709Z" fill="#F2F2F2"/>
<path d="M80.3206 55.1637H82.1878V56.9467H74.1641V55.1637L75.9202 55.1808V33.4844H74.1641V31.7015H84.8093C85.84 31.693 86.8662 31.8368 87.8548 32.1281C88.761 32.3951 89.6183 32.806 90.3938 33.3451C91.1867 33.935 91.8374 34.6948 92.2979 35.5688C92.7517 36.4604 92.9813 37.4491 92.9668 38.4493C92.9675 39.2308 92.8107 40.0045 92.5057 40.7241C92.1861 41.4683 91.7425 42.1529 91.1936 42.7488C90.6837 43.2733 90.11 43.7318 89.4858 44.1137C88.8678 44.4954 88.1963 44.7829 87.4934 44.9667C88.0184 46.6726 88.7739 48.299 89.7391 49.8008C90.939 51.6867 92.2796 53.4794 93.7496 55.1637H95.6281V56.9467H89.9924C88.605 55.1325 87.333 53.233 86.1841 51.2595C85.0653 49.3349 84.0718 47.3403 83.2097 45.2881H80.3206V55.1637ZM80.3206 43.4511H84.7068C85.214 43.4456 85.7086 43.2925 86.13 43.0104C86.6344 42.6675 87.073 42.237 87.4251 41.7393C87.7611 41.2302 88.038 40.6845 88.2505 40.1128C88.4477 39.587 88.5508 39.0307 88.555 38.4692C88.5783 37.215 88.1771 35.9896 87.4165 34.9915C87.0594 34.5092 86.592 34.1192 86.0532 33.854C85.5145 33.5889 84.9202 33.4563 84.3197 33.4674L80.3349 33.4844L80.3206 43.4511Z" fill="#F2F2F2"/>
<path d="M114.882 33.4919V56.9541H112.5L100.975 37.0037V55.1627H102.683V56.9456H97.1953V55.1627H98.9515V33.4919H97.1953V31.709H102.811L112.847 48.8727V33.4919H111.139V31.709H116.63V33.4919H114.882Z" fill="#F2F2F2"/>
<path d="M117.633 56.9541V55.1883H119.494C120.724 51.2793 121.957 47.3637 123.195 43.4415C124.432 39.5193 125.665 35.6085 126.895 31.709H128.825L136.41 55.1883H138.234V56.9541H130.66V55.1883H131.947L131.409 53.5106L130.888 51.8926C130.714 51.358 130.538 50.8149 130.364 50.2661L129.826 48.5798H123.67C123.48 49.1485 123.303 49.7078 123.138 50.2575C122.973 50.8073 122.805 51.3466 122.634 51.8755L122.13 53.4935C121.963 54.0376 121.786 54.6063 121.598 55.1996H122.921V56.9655L117.633 56.9541ZM129.269 46.7799C128.83 45.4661 128.401 44.1685 127.982 42.887C127.563 41.6055 127.14 40.3079 126.713 38.9942C126.284 40.3326 125.872 41.6245 125.477 42.87L124.242 46.7799H129.269Z" fill="#F2F2F2"/>
<path d="M145.34 55.1627H153.654C154.688 55.1627 155.344 54.2233 155.621 52.3447H157.5L156.836 56.9456H139.218V55.1627H140.94V33.4919H139.184V31.709H147.028V33.4919H145.34V55.1627Z" fill="#F2F2F2"/>
</svg>
