<svg width="26" height="26" viewBox="0 0 26 26" fill="none" xmlns="http://www.w3.org/2000/svg">
<path d="M3.25 8.66602L11.7975 14.3643C12.1535 14.6019 12.572 14.7287 13 14.7287C13.428 14.7287 13.8465 14.6019 14.2025 14.3643L22.75 8.66602M5.41667 20.5827H20.5833C21.158 20.5827 21.7091 20.3544 22.1154 19.9481C22.5217 19.5418 22.75 18.9907 22.75 18.416V7.58268C22.75 7.00805 22.5217 6.45695 22.1154 6.05062C21.7091 5.64429 21.158 5.41602 20.5833 5.41602H5.41667C4.84203 5.41602 4.29093 5.64429 3.8846 6.05062C3.47827 6.45695 3.25 7.00805 3.25 7.58268V18.416C3.25 18.9907 3.47827 19.5418 3.8846 19.9481C4.29093 20.3544 4.84203 20.5827 5.41667 20.5827Z" stroke="#F2F2F2" stroke-width="2" stroke-linecap="round" stroke-linejoin="round"/>
</svg>
